<?xml version="1.0" encoding="iso-8859-1"?>
<!-- Generator: Adobe Illustrator 19.0.0, SVG Export Plug-In . SVG Version: 6.00 Build 0)  -->
<svg xmlns="http://www.w3.org/2000/svg" xmlns:xlink="http://www.w3.org/1999/xlink" version="1.1" id="Layer_1" x="0px" y="0px" viewBox="0 0 512 512" style="enable-background:new 0 0 512 512;" xml:space="preserve" width="64px" height="64px">
<g>
	<g>
		<g>
			<path d="M337.216,298.011c-1.434,1.377-2.908,2.722-4.381,3.997c-4.456,3.855-4.941,10.592-1.086,15.045     c2.111,2.437,5.082,3.686,8.069,3.686c2.474,0,4.959-0.855,6.976-2.602c1.751-1.516,3.5-3.111,5.199-4.742     c4.249-4.081,4.384-10.833,0.303-15.083C348.217,294.065,341.466,293.931,337.216,298.011z" fill="#171717"/>
			<path d="M317.933,337.429c5.266-2.642,7.393-9.052,4.751-14.318c-2.482-4.947-8.289-7.122-13.352-5.177v-43.479     c0-5.89-4.776-10.667-10.667-10.667h-85.333c-5.89,0-10.667,4.777-10.667,10.667v43.372     c-29.903-15.325-52.4-43.116-60.606-76.468c5.458,2.542,11.534,3.97,17.941,3.97c12.734,0,24.174-5.615,31.998-14.491     c7.825,8.876,19.267,14.491,32.001,14.491c12.734,0,24.174-5.615,31.998-14.491c7.825,8.876,19.267,14.491,32.001,14.491     c12.735,0,24.176-5.615,32.001-14.491c7.824,8.876,19.265,14.491,31.998,14.491c6.417,0,12.503-1.432,17.968-3.981     c-1.491,6.082-3.468,12.048-5.941,17.865c-2.304,5.422,0.222,11.685,5.643,13.991c1.362,0.578,2.777,0.853,4.169,0.853     c4.15,0,8.096-2.436,9.822-6.496c7.305-17.181,11.008-35.427,11.008-54.232v-10.668v-15.166c0-0.441-0.034-0.871-0.086-1.299     c-0.015-0.111-0.033-0.219-0.05-0.329c-0.054-0.346-0.123-0.686-0.208-1.02c-0.015-0.057-0.019-0.113-0.034-0.17     c-4.761-17.387-9.578-32.199-14.239-46.522c-4.528-13.921-9.211-28.316-13.8-44.992c-1.274-4.629-5.484-7.837-10.285-7.837     h-48.998h-49h-48.995h-48.971c-4.659,0-8.779,3.024-10.176,7.47c-5.27,16.775-10.641,31.257-15.834,45.263     c-5.277,14.234-10.734,28.953-16.16,46.211c-0.029,0.095-0.052,0.193-0.079,0.289c-0.062,0.213-0.118,0.428-0.165,0.645     c-0.027,0.121-0.049,0.244-0.07,0.367c-0.038,0.207-0.069,0.416-0.096,0.626c-0.014,0.109-0.028,0.218-0.037,0.329     c-0.029,0.322-0.049,0.644-0.049,0.969v15.166v10.668c0,59.98,38.282,111.182,91.692,130.471c0.475,0.21,0.97,0.382,1.479,0.522     c14.256,4.969,29.563,7.677,45.492,7.677c20.171,0,39.628-4.24,57.827-12.601C315.23,338.754,316.611,338.091,317.933,337.429z      M373.334,202.664c0,11.763-9.57,21.335-21.335,21.335c-11.762,0-21.331-9.571-21.331-21.335v-4.499h42.666V202.664z      M347.889,106.664c3.989,13.857,7.987,26.148,11.874,38.094c3.318,10.203,6.72,20.663,10.101,32.073h-40.511     c-1.785-13.218-3.571-25.069-5.31-36.577c-1.609-10.65-3.259-21.575-4.904-33.59H347.889z M266.665,198.139     c5.652-0.268,10.157-4.922,10.157-10.641c0-5.645-4.389-10.254-9.939-10.63c0.258-12.453,0.513-23.722,0.763-34.682     c0.254-11.215,0.516-22.732,0.78-35.522h29.191c1.792,13.294,3.587,25.208,5.334,36.777c1.599,10.587,3.238,21.454,4.875,33.391     h-2.299c-5.89,0-10.667,4.776-10.667,10.667c0,5.89,4.777,10.667,10.667,10.667h3.808v4.499c0,11.763-9.57,21.335-21.335,21.335     c-11.763,0-21.335-9.571-21.335-21.335V198.139z M202.666,188.385c2.768-16.498,5.571-30.759,8.283-44.557     c2.297-11.685,4.658-23.698,7.02-37.163h29.118c-0.26,12.588-0.518,23.969-0.77,35.038c-0.252,11.089-0.511,22.496-0.772,35.13     H231.57c-5.89,0-10.667,4.776-10.667,10.667c0,5.89,4.777,10.667,10.667,10.667h13.76v4.499     c0.001,11.762-9.567,21.333-21.33,21.333c-11.763,0-21.335-9.571-21.335-21.335V188.385z M138.666,198.164h4.274     c5.89,0,10.667-4.777,10.667-10.667c0-5.891-4.777-10.667-10.667-10.667h-0.224c3.783-11.129,7.576-21.365,11.279-31.351     c4.508-12.157,9.147-24.67,13.785-38.815h28.523c-2.112,11.801-4.225,22.559-6.287,33.049     c-2.788,14.189-5.673,28.86-8.538,46.028c-0.097,0.58-0.146,1.168-0.146,1.756v15.166c0,11.763-9.569,21.335-21.331,21.335     c-11.763,0-21.335-9.571-21.335-21.335V198.164z M287.999,326.253c-10.333,2.928-21.04,4.414-32,4.414     c-11.089,0-21.823-1.547-31.999-4.435v-41.108h63.999V326.253z" fill="#171717"/>
			<path d="M362.666,490.667H282.09c8.779-8.429,17.921-17.006,27.379-25.874c74.933-70.253,159.864-149.882,159.862-251.46     c0.001-56.984-22.189-110.557-62.483-150.851C366.555,22.188,312.982-0.002,255.992,0c-56.98,0-110.549,22.191-150.842,62.486     c-40.293,40.294-62.483,93.865-62.482,150.846c-0.003,101.576,84.924,181.203,159.854,251.455     c9.46,8.869,18.604,17.449,27.384,25.88h-80.575c-5.89,0-10.667,4.777-10.667,10.667S143.442,512,149.332,512h213.334     c5.891,0,10.667-4.777,10.667-10.667S368.557,490.667,362.666,490.667z M217.115,449.225     c-71.77-67.291-153.116-143.558-153.113-235.893c-0.001-51.283,19.97-99.496,56.233-135.761     c36.264-36.265,84.475-56.237,135.763-56.237c51.286-0.002,99.501,19.969,135.765,56.233     c36.264,36.264,56.235,84.48,56.234,135.765C448,305.67,366.65,381.938,294.878,449.229     c-13.627,12.775-26.63,24.967-38.879,37.04C243.747,474.194,230.744,462.003,217.115,449.225z" fill="#171717"/>
		</g>
	</g>
</g>
<g>
</g>
<g>
</g>
<g>
</g>
<g>
</g>
<g>
</g>
<g>
</g>
<g>
</g>
<g>
</g>
<g>
</g>
<g>
</g>
<g>
</g>
<g>
</g>
<g>
</g>
<g>
</g>
<g>
</g>
</svg>
