<?xml version="1.0" encoding="iso-8859-1"?>
<!-- Generator: Adobe Illustrator 19.0.0, SVG Export Plug-In . SVG Version: 6.00 Build 0)  -->
<svg xmlns="http://www.w3.org/2000/svg" xmlns:xlink="http://www.w3.org/1999/xlink" version="1.1" id="Layer_1" x="0px" y="0px" viewBox="0 0 426.667 426.667" style="enable-background:new 0 0 426.667 426.667;" xml:space="preserve" width="64px" height="64px">
<g>
	<g>
		<g>
			<polygon points="313.749,249.749 283.584,219.584 234.667,268.501 234.667,0 192,0 192,268.501 143.083,219.584 112.917,249.749      213.333,350.165    " fill="#242424"/>
			<path d="M341.333,128H320v42.667h21.333V384h-256V170.667h21.333V128H85.333c-23.531,0-42.667,19.136-42.667,42.667V384     c0,23.509,19.136,42.667,42.667,42.667h256C364.885,426.667,384,407.509,384,384V170.667C384,147.136,364.885,128,341.333,128z" fill="#242424"/>
		</g>
	</g>
</g>
<g>
</g>
<g>
</g>
<g>
</g>
<g>
</g>
<g>
</g>
<g>
</g>
<g>
</g>
<g>
</g>
<g>
</g>
<g>
</g>
<g>
</g>
<g>
</g>
<g>
</g>
<g>
</g>
<g>
</g>
</svg>
