<?xml version="1.0" encoding="iso-8859-1"?>
<!-- Generator: Adobe Illustrator 19.0.0, SVG Export Plug-In . SVG Version: 6.00 Build 0)  -->
<svg xmlns="http://www.w3.org/2000/svg" xmlns:xlink="http://www.w3.org/1999/xlink" version="1.1" id="Layer_1" x="0px" y="0px" viewBox="0 0 512 512" style="enable-background:new 0 0 512 512;" xml:space="preserve" width="64px" height="64px">
<g>
	<g>
		<g>
			<path d="M458.671,214.24v-11.571c0-17.645-14.354-32-32-32H320v-53.337c0-5.891-4.775-10.667-10.667-10.667h-32.001V74.67     c0-5.891-4.776-10.667-10.667-10.667H121.759L103.545,45.79c-4.164-4.165-10.918-4.165-15.084,0l-60.878,60.875H10.667     C4.776,106.666,0,111.441,0,117.332v298.668c0,5.89,4.776,10.667,10.667,10.667h43.739c1.605,7.878,4.954,15.129,9.622,21.333     H42.666C36.775,448,32,452.777,32,458.667s4.775,10.667,10.667,10.667h63.997c0.027,0,0.052-0.004,0.079-0.004     c25.72-0.037,47.231-18.373,52.181-42.662h150.409h43.747c1.605,7.878,4.955,15.129,9.623,21.333H341.34     c-5.89,0-10.667,4.776-10.667,10.667s4.776,10.667,10.667,10.667h63.997c0.027,0,0.053-0.004,0.08-0.004     c25.72-0.037,47.231-18.373,52.181-42.662h43.735c5.891,0,10.667-4.776,10.667-10.667v-96.001v-42.669     C512,245.679,488.896,219.336,458.671,214.24z M255.999,85.337v21.329h-91.576l-21.33-21.329H255.999z M96.003,68.417     l13.788,13.787c0.005,0.005,0.011,0.011,0.016,0.016l24.446,24.446H57.754L96.003,68.417z M106.666,447.998     c-17.646,0-32.001-14.354-32.001-31.998c0-17.646,14.355-32.002,32.001-32.002c17.644,0,31.998,14.356,31.998,32.002     C138.663,433.644,124.309,447.998,106.666,447.998z M298.666,181.336v181.332h-72.543c-5.891,0-10.667,4.776-10.667,10.667     s4.775,10.667,10.667,10.667h72.543v21.333H158.924c-4.955-24.316-26.503-42.668-52.258-42.668     c-25.755,0-47.306,18.353-52.261,42.668H21.333V234.668h42.665c5.89,0,10.667-4.775,10.667-10.667     c0-5.891-4.776-10.667-10.667-10.667H21.333v-21.332H149.33c5.891,0,10.667-4.775,10.667-10.667     c0-5.891-4.775-10.667-10.667-10.667H21.333v-42.671h10.66c0.006,0,0.012,0,0.017,0h266.656V181.336z M353.08,405.334H320     v-21.333h42.701C358.032,390.206,354.684,397.456,353.08,405.334z M437.337,416.035c-0.019,17.629-14.366,31.963-31.998,31.963     c-17.645,0-32.001-14.354-32.001-31.998c0-17.619,14.311-31.955,31.919-32h0.08c0.01,0,0.019-0.001,0.028-0.001     c17.621,0.014,31.953,14.346,31.972,31.967c0,0.012-0.001,0.022-0.001,0.034C437.336,416.012,437.337,416.023,437.337,416.035z      M490.667,405.334h-33.069c-4.956-24.316-26.504-42.668-52.259-42.668c-0.028,0-0.055,0.002-0.082,0.002h-85.258V192.003h106.672     c5.882,0,10.667,4.785,10.667,10.667v10.666h-74.666c-5.89,0-10.667,4.775-10.667,10.667v95.998     c0,5.891,4.776,10.667,10.667,10.667h127.995V405.334z M394.673,234.668v74.665h-21.334v-74.665H394.673z M490.667,309.333     h-74.661v-74.665h31.999c23.524,0,42.662,19.138,42.662,42.663V309.333z" fill="#1f1f1f"/>
			<path d="M184.397,384.001h6.658c5.89,0,10.667-4.776,10.667-10.667s-4.776-10.667-10.667-10.667h-6.658     c-5.891,0-10.667,4.776-10.667,10.667S178.507,384.001,184.397,384.001z" fill="#1f1f1f"/>
			<path d="M184.397,192.003h6.658c5.89,0,10.667-4.775,10.667-10.667c0-5.891-4.776-10.667-10.667-10.667h-6.658     c-5.891,0-10.667,4.775-10.667,10.667C173.731,187.227,178.507,192.003,184.397,192.003z" fill="#1f1f1f"/>
		</g>
	</g>
</g>
<g>
</g>
<g>
</g>
<g>
</g>
<g>
</g>
<g>
</g>
<g>
</g>
<g>
</g>
<g>
</g>
<g>
</g>
<g>
</g>
<g>
</g>
<g>
</g>
<g>
</g>
<g>
</g>
<g>
</g>
</svg>
